ply
format ascii 1.0
comment Created by Blender 2.79 (sub 0) - www.blender.org, source file: 'test1.blend'
element vertex 720
property float x
property float y
property float z
property float nx
property float ny
property float nz
element face 288
property list uchar uint vertex_indices
end_header
2.520364 0.000000 5.355135 0.000000 -0.000000 -1.000000
1.960283 0.000000 5.355135 0.000000 -0.000000 -1.000000
1.943512 0.255868 5.355135 0.000000 -0.000000 -1.000000
2.498801 0.328973 5.355135 0.000000 -0.000000 -1.000000
1.893488 0.507358 5.355135 0.000000 -0.000000 -1.000000
2.434484 0.652318 5.355135 0.000000 -0.000000 -1.000000
1.811065 0.750168 5.355135 0.000000 -0.000000 -1.000000
2.328512 0.964501 5.355135 0.000000 -0.000000 -1.000000
2.776446 0.365526 5.355135 0.000000 -0.000000 -1.000000
2.704983 0.724798 5.355135 0.000000 -0.000000 -1.000000
2.587236 1.071668 5.355135 0.000000 -0.000000 -1.000000
3.039124 0.502858 5.355135 0.000000 -0.000000 -1.000000
2.975481 0.797278 5.355135 0.000000 -0.000000 -1.000000
2.883387 1.084074 5.355135 0.000000 -0.000000 -1.000000
1.960283 0.000000 6.475297 0.000000 0.000000 1.000000
2.520364 0.000000 6.475297 0.000000 0.000000 1.000000
2.498801 0.328973 6.475297 0.000000 0.000000 1.000000
1.943512 0.255868 6.475297 0.000000 0.000000 1.000000
2.434484 0.652318 6.475297 0.000000 0.000000 1.000000
1.893488 0.507358 6.475297 0.000000 0.000000 1.000000
2.328512 0.964501 6.475297 0.000000 0.000000 1.000000
1.811065 0.750168 6.475297 0.000000 0.000000 1.000000
2.776446 0.365526 6.475297 0.000000 0.000000 1.000000
2.704983 0.724798 6.475297 0.000000 0.000000 1.000000
2.587236 1.071668 6.475297 0.000000 0.000000 1.000000
3.039124 0.502858 6.475297 0.000000 0.000000 1.000000
2.975481 0.797278 6.475297 0.000000 0.000000 1.000000
2.883387 1.084074 6.475297 0.000000 0.000000 1.000000
2.520364 0.000000 6.475297 0.997859 0.065403 0.000000
2.520364 0.000000 5.355135 0.997859 0.065403 0.000000
2.498801 0.328973 5.355135 0.997859 0.065403 0.000000
2.498801 0.328973 6.475297 0.997859 0.065403 0.000000
2.498801 0.328973 6.475297 0.130526 -0.991445 0.000000
2.498801 0.328973 5.355135 0.130526 -0.991445 0.000000
2.776446 0.365526 5.355135 0.130526 -0.991445 0.000000
2.776446 0.365526 6.475297 0.130526 -0.991445 0.000000
2.776446 0.365526 6.475297 0.463316 -0.886193 0.000000
2.776446 0.365526 5.355135 0.463316 -0.886193 0.000000
3.039124 0.502858 5.355135 0.463316 -0.886193 0.000000
3.039124 0.502858 6.475297 0.463316 -0.886193 0.000000
3.039124 0.502858 6.475297 0.977425 0.211283 0.000000
3.039124 0.502858 5.355135 0.977425 0.211283 0.000000
2.975481 0.797278 5.355135 0.977425 0.211283 0.000000
2.975481 0.797278 6.475297 0.977425 0.211283 0.000000
2.975481 0.797278 6.475297 0.952117 0.305735 0.000000
2.975481 0.797278 5.355135 0.952117 0.305735 0.000000
2.883387 1.084074 5.355135 0.952117 0.305735 0.000000
2.883387 1.084074 6.475297 0.952117 0.305735 0.000000
2.883387 1.084074 6.475297 -0.041854 0.999124 0.000000
2.883387 1.084074 5.355135 -0.041854 0.999124 0.000000
2.587236 1.071668 5.355135 -0.041854 0.999124 0.000000
2.587236 1.071668 6.475297 -0.041854 0.999124 0.000000
2.587236 1.071668 6.475297 -0.382684 0.923879 0.000000
2.587236 1.071668 5.355135 -0.382684 0.923879 0.000000
2.328512 0.964501 5.355135 -0.382684 0.923879 0.000000
2.328512 0.964501 6.475297 -0.382684 0.923879 0.000000
2.182699 1.260182 5.355135 0.000000 -0.000000 -1.000000
1.697655 0.980141 5.355135 0.000000 -0.000000 -1.000000
1.555197 1.193345 5.355135 0.000000 -0.000000 -1.000000
1.999539 1.534300 5.355135 0.000000 -0.000000 -1.000000
1.386129 1.386129 5.355135 0.000000 -0.000000 -1.000000
1.782166 1.782166 5.355135 0.000000 -0.000000 -1.000000
1.193345 1.555197 5.355135 0.000000 -0.000000 -1.000000
1.534300 1.999539 5.355135 0.000000 -0.000000 -1.000000
2.221710 1.704778 5.355135 0.000000 0.000000 -1.000000
1.980185 1.980185 5.355135 0.000000 0.000000 -1.000000
1.704778 2.221710 5.355135 0.000000 0.000000 -1.000000
2.380529 1.955050 5.355135 0.000000 0.000000 -1.000000
2.178203 2.178203 5.355135 0.000000 0.000000 -1.000000
1.955050 2.380529 5.355135 0.000000 0.000000 -1.000000
1.697655 0.980141 6.475297 -0.000000 0.000000 1.000000
2.182699 1.260182 6.475297 -0.000000 0.000000 1.000000
1.999539 1.534300 6.475297 -0.000000 0.000000 1.000000
1.555197 1.193345 6.475297 -0.000000 0.000000 1.000000
1.782166 1.782166 6.475297 -0.000000 0.000000 1.000000
1.386129 1.386129 6.475297 -0.000000 0.000000 1.000000
1.534300 1.999539 6.475297 -0.000000 0.000000 1.000000
1.193345 1.555197 6.475297 -0.000000 0.000000 1.000000
2.221710 1.704778 6.475297 0.000000 0.000000 1.000000
1.980185 1.980185 6.475297 0.000000 0.000000 1.000000
1.704778 2.221710 6.475297 0.000000 0.000000 1.000000
2.380529 1.955050 6.475297 0.000000 0.000000 1.000000
2.178203 2.178203 6.475297 0.000000 0.000000 1.000000
1.955050 2.380529 6.475297 0.000000 0.000000 1.000000
2.182699 1.260182 6.475297 0.831470 0.555570 0.000000
2.182699 1.260182 5.355135 0.831470 0.555570 0.000000
1.999539 1.534300 5.355135 0.831470 0.555570 0.000000
1.999539 1.534300 6.475297 0.831470 0.555570 0.000000
1.999539 1.534300 6.475297 0.608761 -0.793353 0.000000
1.999539 1.534300 5.355135 0.608761 -0.793353 0.000000
2.221710 1.704778 5.355135 0.608761 -0.793353 0.000000
2.221710 1.704778 6.475297 0.608761 -0.793353 0.000000
2.221710 1.704778 6.475297 0.844340 -0.535808 0.000000
2.221710 1.704778 5.355135 0.844340 -0.535808 0.000000
2.380529 1.955050 5.355135 0.844340 -0.535808 0.000000
2.380529 1.955050 6.475297 0.844340 -0.535808 0.000000
2.380529 1.955050 6.475297 0.740833 0.671689 0.000000
2.380529 1.955050 5.355135 0.740833 0.671689 0.000000
2.178203 2.178203 5.355135 0.740833 0.671689 0.000000
2.178203 2.178203 6.475297 0.740833 0.671689 0.000000
2.178203 2.178203 6.475297 0.671689 0.740833 0.000000
2.178203 2.178203 5.355135 0.671689 0.740833 0.000000
1.955050 2.380529 5.355135 0.671689 0.740833 0.000000
1.955050 2.380529 6.475297 0.671689 0.740833 0.000000
1.955050 2.380529 6.475297 -0.535808 0.844340 0.000000
1.955050 2.380529 5.355135 -0.535808 0.844340 0.000000
1.704778 2.221710 5.355135 -0.535808 0.844340 0.000000
1.704778 2.221710 6.475297 -0.535808 0.844340 0.000000
1.704778 2.221710 6.475297 -0.793353 0.608761 0.000000
1.704778 2.221710 5.355135 -0.793353 0.608761 0.000000
1.534300 1.999539 5.355135 -0.793353 0.608761 0.000000
1.534300 1.999539 6.475297 -0.793353 0.608761 0.000000
2.328512 0.964501 5.355135 0.896873 0.442289 0.000000
2.182699 1.260182 5.355135 0.896873 0.442289 0.000000
2.182699 1.260182 6.475297 0.896873 0.442289 0.000000
2.328512 0.964501 6.475297 0.896873 0.442289 0.000000
1.260182 2.182699 5.355135 0.000000 0.000000 -1.000000
0.980141 1.697655 5.355135 0.000000 0.000000 -1.000000
0.750168 1.811065 5.355135 0.000000 0.000000 -1.000000
0.964501 2.328512 5.355135 0.000000 0.000000 -1.000000
0.507358 1.893488 5.355135 0.000000 0.000000 -1.000000
0.652318 2.434484 5.355135 0.000000 0.000000 -1.000000
0.255868 1.943512 5.355135 0.000000 0.000000 -1.000000
0.328973 2.498801 5.355135 0.000000 0.000000 -1.000000
1.071668 2.587236 5.355135 0.000000 0.000000 -1.000000
0.724798 2.704983 5.355135 0.000000 0.000000 -1.000000
0.365526 2.776446 5.355135 0.000000 0.000000 -1.000000
1.084074 2.883387 5.355135 0.000000 0.000000 -1.000000
0.797278 2.975481 5.355135 0.000000 0.000000 -1.000000
0.502858 3.039124 5.355135 0.000000 0.000000 -1.000000
0.980141 1.697655 6.475297 -0.000000 0.000000 1.000000
1.260182 2.182699 6.475297 -0.000000 0.000000 1.000000
0.964501 2.328512 6.475297 -0.000000 0.000000 1.000000
0.750168 1.811065 6.475297 -0.000000 0.000000 1.000000
0.652318 2.434484 6.475297 -0.000000 0.000000 1.000000
0.507358 1.893488 6.475297 -0.000000 0.000000 1.000000
0.328973 2.498801 6.475297 -0.000000 0.000000 1.000000
0.255868 1.943512 6.475297 -0.000000 0.000000 1.000000
1.071668 2.587236 6.475297 -0.000000 0.000000 1.000000
0.724798 2.704983 6.475297 -0.000000 0.000000 1.000000
0.365526 2.776446 6.475297 -0.000000 0.000000 1.000000
1.084074 2.883387 6.475297 -0.000000 0.000000 1.000000
0.797278 2.975481 6.475297 -0.000000 0.000000 1.000000
0.502858 3.039124 6.475297 -0.000000 0.000000 1.000000
1.260182 2.182699 6.475297 0.442289 0.896873 0.000000
1.260182 2.182699 5.355135 0.442289 0.896873 0.000000
0.964501 2.328512 5.355135 0.442289 0.896873 0.000000
0.964501 2.328512 6.475297 0.442289 0.896873 0.000000
0.964501 2.328512 6.475297 0.923879 -0.382684 0.000000
0.964501 2.328512 5.355135 0.923879 -0.382684 0.000000
1.071668 2.587236 5.355135 0.923879 -0.382684 0.000000
1.071668 2.587236 6.475297 0.923879 -0.382684 0.000000
1.071668 2.587236 6.475297 0.999124 -0.041854 0.000000
1.071668 2.587236 5.355135 0.999124 -0.041854 0.000000
1.084074 2.883387 5.355135 0.999124 -0.041854 0.000000
1.084074 2.883387 6.475297 0.999124 -0.041854 0.000000
1.084074 2.883387 6.475297 0.305735 0.952117 0.000000
1.084074 2.883387 5.355135 0.305735 0.952117 0.000000
0.797278 2.975481 5.355135 0.305735 0.952117 0.000000
0.797278 2.975481 6.475297 0.305735 0.952117 0.000000
0.797278 2.975481 6.475297 0.211283 0.977425 0.000000
0.797278 2.975481 5.355135 0.211283 0.977425 0.000000
0.502858 3.039124 5.355135 0.211283 0.977425 0.000000
0.502858 3.039124 6.475297 0.211283 0.977425 0.000000
0.502858 3.039124 6.475297 -0.886193 0.463316 0.000000
0.502858 3.039124 5.355135 -0.886193 0.463316 0.000000
0.365526 2.776446 5.355135 -0.886193 0.463316 0.000000
0.365526 2.776446 6.475297 -0.886193 0.463316 0.000000
0.365526 2.776446 6.475297 -0.991445 0.130526 0.000000
0.365526 2.776446 5.355135 -0.991445 0.130526 0.000000
0.328973 2.498801 5.355135 -0.991445 0.130526 0.000000
0.328973 2.498801 6.475297 -0.991445 0.130526 0.000000
1.534300 1.999539 5.355135 0.555570 0.831470 0.000000
1.260182 2.182699 5.355135 0.555570 0.831470 0.000000
1.260182 2.182699 6.475297 0.555570 0.831470 0.000000
1.534300 1.999539 6.475297 0.555570 0.831470 0.000000
0.000000 2.520364 5.355135 0.000000 0.000000 -1.000000
0.000000 1.960283 5.355135 0.000000 0.000000 -1.000000
-0.255868 1.943512 5.355135 0.000000 0.000000 -1.000000
-0.328973 2.498801 5.355135 0.000000 0.000000 -1.000000
-0.507358 1.893488 5.355135 0.000000 0.000000 -1.000000
-0.652318 2.434484 5.355135 0.000000 0.000000 -1.000000
-0.750168 1.811065 5.355135 0.000000 0.000000 -1.000000
-0.964501 2.328512 5.355135 0.000000 0.000000 -1.000000
-0.365526 2.776446 5.355135 0.000000 0.000000 -1.000000
-0.724798 2.704983 5.355135 0.000000 0.000000 -1.000000
-1.071668 2.587236 5.355135 0.000000 0.000000 -1.000000
-0.502858 3.039124 5.355135 0.000000 0.000000 -1.000000
-0.797278 2.975481 5.355135 0.000000 0.000000 -1.000000
-1.084074 2.883387 5.355135 0.000000 0.000000 -1.000000
0.000000 1.960283 6.475297 -0.000000 0.000000 1.000000
0.000000 2.520364 6.475297 -0.000000 0.000000 1.000000
-0.328973 2.498801 6.475297 -0.000000 0.000000 1.000000
-0.255868 1.943512 6.475297 -0.000000 0.000000 1.000000
-0.652318 2.434484 6.475297 -0.000000 0.000000 1.000000
-0.507358 1.893488 6.475297 -0.000000 0.000000 1.000000
-0.964501 2.328512 6.475297 -0.000000 0.000000 1.000000
-0.750168 1.811065 6.475297 -0.000000 0.000000 1.000000
-0.365526 2.776446 6.475297 -0.000000 0.000000 1.000000
-0.724798 2.704983 6.475297 -0.000000 0.000000 1.000000
-1.071668 2.587236 6.475297 -0.000000 0.000000 1.000000
-0.502858 3.039124 6.475297 -0.000000 0.000000 1.000000
-0.797278 2.975481 6.475297 -0.000000 0.000000 1.000000
-1.084074 2.883387 6.475297 -0.000000 0.000000 1.000000
0.000000 2.520364 6.475297 -0.065403 0.997859 0.000000
0.000000 2.520364 5.355135 -0.065403 0.997859 0.000000
-0.328973 2.498801 5.355135 -0.065403 0.997859 0.000000
-0.328973 2.498801 6.475297 -0.065403 0.997859 0.000000
-0.328973 2.498801 6.475297 0.991445 0.130526 0.000000
-0.328973 2.498801 5.355135 0.991445 0.130526 0.000000
-0.365526 2.776446 5.355135 0.991445 0.130526 0.000000
-0.365526 2.776446 6.475297 0.991445 0.130526 0.000000
-0.365526 2.776446 6.475297 0.886193 0.463316 0.000000
-0.365526 2.776446 5.355135 0.886193 0.463316 0.000000
-0.502858 3.039124 5.355135 0.886193 0.463316 0.000000
-0.502858 3.039124 6.475297 0.886193 0.463316 0.000000
-0.502858 3.039124 6.475297 -0.211283 0.977425 0.000000
-0.502858 3.039124 5.355135 -0.211283 0.977425 0.000000
-0.797278 2.975481 5.355135 -0.211283 0.977425 0.000000
-0.797278 2.975481 6.475297 -0.211283 0.977425 0.000000
-0.797278 2.975481 6.475297 -0.305735 0.952117 0.000000
-0.797278 2.975481 5.355135 -0.305735 0.952117 0.000000
-1.084074 2.883387 5.355135 -0.305735 0.952117 0.000000
-1.084074 2.883387 6.475297 -0.305735 0.952117 0.000000
-1.084074 2.883387 6.475297 -0.999124 -0.041854 0.000000
-1.084074 2.883387 5.355135 -0.999124 -0.041854 0.000000
-1.071668 2.587236 5.355135 -0.999124 -0.041854 0.000000
-1.071668 2.587236 6.475297 -0.999124 -0.041854 0.000000
-1.071668 2.587236 6.475297 -0.923879 -0.382684 0.000000
-1.071668 2.587236 5.355135 -0.923879 -0.382684 0.000000
-0.964501 2.328512 5.355135 -0.923879 -0.382684 0.000000
-0.964501 2.328512 6.475297 -0.923879 -0.382684 0.000000
0.328973 2.498801 5.355135 0.065403 0.997859 0.000000
0.000000 2.520364 5.355135 0.065403 0.997859 0.000000
0.000000 2.520364 6.475297 0.065403 0.997859 0.000000
0.328973 2.498801 6.475297 0.065403 0.997859 0.000000
-1.260182 2.182699 5.355135 0.000000 0.000000 -1.000000
-0.980141 1.697655 5.355135 0.000000 0.000000 -1.000000
-1.193345 1.555197 5.355135 0.000000 0.000000 -1.000000
-1.534300 1.999539 5.355135 0.000000 0.000000 -1.000000
-1.386129 1.386129 5.355135 0.000000 0.000000 -1.000000
-1.782166 1.782166 5.355135 0.000000 0.000000 -1.000000
-1.555197 1.193345 5.355135 0.000000 0.000000 -1.000000
-1.999539 1.534300 5.355135 0.000000 0.000000 -1.000000
-1.704778 2.221710 5.355135 0.000000 0.000000 -1.000000
-1.980185 1.980185 5.355135 0.000000 0.000000 -1.000000
-2.221710 1.704778 5.355135 0.000000 0.000000 -1.000000
-1.955050 2.380529 5.355135 0.000000 0.000000 -1.000000
-2.178203 2.178203 5.355135 0.000000 0.000000 -1.000000
-2.380529 1.955050 5.355135 0.000000 0.000000 -1.000000
-0.980141 1.697655 6.475297 -0.000000 -0.000000 1.000000
-1.260182 2.182699 6.475297 -0.000000 -0.000000 1.000000
-1.534300 1.999539 6.475297 -0.000000 -0.000000 1.000000
-1.193345 1.555197 6.475297 -0.000000 -0.000000 1.000000
-1.782166 1.782166 6.475297 -0.000000 -0.000000 1.000000
-1.386129 1.386129 6.475297 -0.000000 -0.000000 1.000000
-1.999539 1.534300 6.475297 -0.000000 -0.000000 1.000000
-1.555197 1.193345 6.475297 -0.000000 -0.000000 1.000000
-1.704778 2.221710 6.475297 0.000000 0.000000 1.000000
-1.980185 1.980185 6.475297 0.000000 0.000000 1.000000
-2.221710 1.704778 6.475297 0.000000 0.000000 1.000000
-1.955050 2.380529 6.475297 0.000000 0.000000 1.000000
-2.178203 2.178203 6.475297 0.000000 0.000000 1.000000
-2.380529 1.955050 6.475297 0.000000 0.000000 1.000000
-1.260182 2.182699 6.475297 -0.555570 0.831470 0.000000
-1.260182 2.182699 5.355135 -0.555570 0.831470 0.000000
-1.534300 1.999539 5.355135 -0.555570 0.831470 0.000000
-1.534300 1.999539 6.475297 -0.555570 0.831470 0.000000
-1.534300 1.999539 6.475297 0.793353 0.608761 0.000000
-1.534300 1.999539 5.355135 0.793353 0.608761 0.000000
-1.704778 2.221710 5.355135 0.793353 0.608761 0.000000
-1.704778 2.221710 6.475297 0.793353 0.608761 0.000000
-1.704778 2.221710 6.475297 0.535808 0.844340 0.000000
-1.704778 2.221710 5.355135 0.535808 0.844340 0.000000
-1.955050 2.380529 5.355135 0.535808 0.844340 0.000000
-1.955050 2.380529 6.475297 0.535808 0.844340 0.000000
-1.955050 2.380529 6.475297 -0.671689 0.740833 0.000000
-1.955050 2.380529 5.355135 -0.671689 0.740833 0.000000
-2.178203 2.178203 5.355135 -0.671689 0.740833 0.000000
-2.178203 2.178203 6.475297 -0.671689 0.740833 0.000000
-2.178203 2.178203 6.475297 -0.740833 0.671689 0.000000
-2.178203 2.178203 5.355135 -0.740833 0.671689 0.000000
-2.380529 1.955050 5.355135 -0.740833 0.671689 0.000000
-2.380529 1.955050 6.475297 -0.740833 0.671689 0.000000
-2.380529 1.955050 6.475297 -0.844340 -0.535808 0.000000
-2.380529 1.955050 5.355135 -0.844340 -0.535808 0.000000
-2.221710 1.704778 5.355135 -0.844340 -0.535808 0.000000
-2.221710 1.704778 6.475297 -0.844340 -0.535808 0.000000
-2.221710 1.704778 6.475297 -0.608761 -0.793353 0.000000
-2.221710 1.704778 5.355135 -0.608761 -0.793353 0.000000
-1.999539 1.534300 5.355135 -0.608761 -0.793353 0.000000
-1.999539 1.534300 6.475297 -0.608761 -0.793353 0.000000
-0.964501 2.328512 5.355135 -0.442289 0.896873 0.000000
-1.260182 2.182699 5.355135 -0.442289 0.896873 0.000000
-1.260182 2.182699 6.475297 -0.442289 0.896873 0.000000
-0.964501 2.328512 6.475297 -0.442289 0.896873 0.000000
-2.182699 1.260182 5.355135 0.000000 0.000000 -1.000000
-1.697655 0.980141 5.355135 0.000000 0.000000 -1.000000
-1.811065 0.750168 5.355135 0.000000 0.000000 -1.000000
-2.328512 0.964501 5.355135 0.000000 0.000000 -1.000000
-1.893488 0.507358 5.355135 0.000000 0.000000 -1.000000
-2.434484 0.652318 5.355135 0.000000 0.000000 -1.000000
-1.943512 0.255868 5.355135 0.000000 0.000000 -1.000000
-2.498801 0.328973 5.355135 0.000000 0.000000 -1.000000
-2.587236 1.071668 5.355135 0.000000 0.000000 -1.000000
-2.704983 0.724798 5.355135 0.000000 0.000000 -1.000000
-2.776446 0.365526 5.355135 0.000000 0.000000 -1.000000
-2.883387 1.084074 5.355135 0.000000 0.000000 -1.000000
-2.975481 0.797278 5.355135 0.000000 0.000000 -1.000000
-3.039124 0.502858 5.355135 0.000000 0.000000 -1.000000
-1.697655 0.980141 6.475297 0.000000 -0.000000 1.000000
-2.182699 1.260182 6.475297 0.000000 -0.000000 1.000000
-2.328512 0.964501 6.475297 0.000000 -0.000000 1.000000
-1.811065 0.750168 6.475297 0.000000 -0.000000 1.000000
-2.434484 0.652318 6.475297 0.000000 -0.000000 1.000000
-1.893488 0.507358 6.475297 0.000000 -0.000000 1.000000
-2.498801 0.328973 6.475297 0.000000 -0.000000 1.000000
-1.943512 0.255868 6.475297 0.000000 -0.000000 1.000000
-2.587236 1.071668 6.475297 0.000000 -0.000000 1.000000
-2.704983 0.724798 6.475297 0.000000 -0.000000 1.000000
-2.776446 0.365526 6.475297 0.000000 -0.000000 1.000000
-2.883387 1.084074 6.475297 0.000000 -0.000000 1.000000
-2.975481 0.797278 6.475297 0.000000 -0.000000 1.000000
-3.039124 0.502858 6.475297 0.000000 -0.000000 1.000000
-2.182699 1.260182 6.475297 -0.896873 0.442289 0.000000
-2.182699 1.260182 5.355135 -0.896873 0.442289 0.000000
-2.328512 0.964501 5.355135 -0.896873 0.442289 0.000000
-2.328512 0.964501 6.475297 -0.896873 0.442289 0.000000
-2.328512 0.964501 6.475297 0.382684 0.923879 0.000000
-2.328512 0.964501 5.355135 0.382684 0.923879 0.000000
-2.587236 1.071668 5.355135 0.382684 0.923879 0.000000
-2.587236 1.071668 6.475297 0.382684 0.923879 0.000000
-2.587236 1.071668 6.475297 0.041854 0.999124 0.000000
-2.587236 1.071668 5.355135 0.041854 0.999124 0.000000
-2.883387 1.084074 5.355135 0.041854 0.999124 0.000000
-2.883387 1.084074 6.475297 0.041854 0.999124 0.000000
-2.883387 1.084074 6.475297 -0.952117 0.305735 0.000000
-2.883387 1.084074 5.355135 -0.952117 0.305735 0.000000
-2.975481 0.797278 5.355135 -0.952117 0.305735 0.000000
-2.975481 0.797278 6.475297 -0.952117 0.305735 0.000000
-2.975481 0.797278 6.475297 -0.977425 0.211283 0.000000
-2.975481 0.797278 5.355135 -0.977425 0.211283 0.000000
-3.039124 0.502858 5.355135 -0.977425 0.211283 0.000000
-3.039124 0.502858 6.475297 -0.977425 0.211283 0.000000
-3.039124 0.502858 6.475297 -0.463316 -0.886193 0.000000
-3.039124 0.502858 5.355135 -0.463316 -0.886193 0.000000
-2.776446 0.365526 5.355135 -0.463316 -0.886193 0.000000
-2.776446 0.365526 6.475297 -0.463316 -0.886193 0.000000
-2.776446 0.365526 6.475297 -0.130526 -0.991445 0.000000
-2.776446 0.365526 5.355135 -0.130526 -0.991445 0.000000
-2.498801 0.328973 5.355135 -0.130526 -0.991445 0.000000
-2.498801 0.328973 6.475297 -0.130526 -0.991445 0.000000
-1.999539 1.534300 5.355135 -0.831470 0.555570 0.000000
-2.182699 1.260182 5.355135 -0.831470 0.555570 0.000000
-2.182699 1.260182 6.475297 -0.831470 0.555570 0.000000
-1.999539 1.534300 6.475297 -0.831470 0.555570 0.000000
-2.520364 0.000000 5.355135 0.000000 0.000000 -1.000000
-1.960283 0.000000 5.355135 0.000000 0.000000 -1.000000
-1.943512 -0.255868 5.355135 0.000000 0.000000 -1.000000
-2.498801 -0.328973 5.355135 0.000000 0.000000 -1.000000
-1.893488 -0.507358 5.355135 0.000000 0.000000 -1.000000
-2.434484 -0.652318 5.355135 0.000000 0.000000 -1.000000
-1.811065 -0.750168 5.355135 0.000000 0.000000 -1.000000
-2.328512 -0.964501 5.355135 0.000000 0.000000 -1.000000
-2.776446 -0.365526 5.355135 0.000000 0.000000 -1.000000
-2.704983 -0.724798 5.355135 0.000000 0.000000 -1.000000
-2.587236 -1.071668 5.355135 0.000000 0.000000 -1.000000
-3.039124 -0.502858 5.355135 0.000000 0.000000 -1.000000
-2.975481 -0.797278 5.355135 0.000000 0.000000 -1.000000
-2.883387 -1.084074 5.355135 0.000000 0.000000 -1.000000
-1.960283 0.000000 6.475297 0.000000 -0.000000 1.000000
-2.520364 0.000000 6.475297 0.000000 -0.000000 1.000000
-2.498801 -0.328973 6.475297 0.000000 -0.000000 1.000000
-1.943512 -0.255868 6.475297 0.000000 -0.000000 1.000000
-2.434484 -0.652318 6.475297 0.000000 -0.000000 1.000000
-1.893488 -0.507358 6.475297 0.000000 -0.000000 1.000000
-2.328512 -0.964501 6.475297 0.000000 -0.000000 1.000000
-1.811065 -0.750168 6.475297 0.000000 -0.000000 1.000000
-2.776446 -0.365526 6.475297 0.000000 -0.000000 1.000000
-2.704983 -0.724798 6.475297 0.000000 -0.000000 1.000000
-2.587236 -1.071668 6.475297 0.000000 -0.000000 1.000000
-3.039124 -0.502858 6.475297 0.000000 -0.000000 1.000000
-2.975481 -0.797278 6.475297 0.000000 -0.000000 1.000000
-2.883387 -1.084074 6.475297 0.000000 -0.000000 1.000000
-2.520364 0.000000 6.475297 -0.997859 -0.065403 0.000000
-2.520364 0.000000 5.355135 -0.997859 -0.065403 0.000000
-2.498801 -0.328973 5.355135 -0.997859 -0.065403 0.000000
-2.498801 -0.328973 6.475297 -0.997859 -0.065403 0.000000
-2.498801 -0.328973 6.475297 -0.130526 0.991445 0.000000
-2.498801 -0.328973 5.355135 -0.130526 0.991445 0.000000
-2.776446 -0.365526 5.355135 -0.130526 0.991445 0.000000
-2.776446 -0.365526 6.475297 -0.130526 0.991445 0.000000
-2.776446 -0.365526 6.475297 -0.463316 0.886193 0.000000
-2.776446 -0.365526 5.355135 -0.463316 0.886193 0.000000
-3.039124 -0.502858 5.355135 -0.463316 0.886193 0.000000
-3.039124 -0.502858 6.475297 -0.463316 0.886193 0.000000
-3.039124 -0.502858 6.475297 -0.977425 -0.211283 0.000000
-3.039124 -0.502858 5.355135 -0.977425 -0.211283 0.000000
-2.975481 -0.797278 5.355135 -0.977425 -0.211283 0.000000
-2.975481 -0.797278 6.475297 -0.977425 -0.211283 0.000000
-2.975481 -0.797278 6.475297 -0.952117 -0.305735 0.000000
-2.975481 -0.797278 5.355135 -0.952117 -0.305735 0.000000
-2.883387 -1.084074 5.355135 -0.952117 -0.305735 0.000000
-2.883387 -1.084074 6.475297 -0.952117 -0.305735 0.000000
-2.883387 -1.084074 6.475297 0.041854 -0.999124 0.000000
-2.883387 -1.084074 5.355135 0.041854 -0.999124 0.000000
-2.587236 -1.071668 5.355135 0.041854 -0.999124 0.000000
-2.587236 -1.071668 6.475297 0.041854 -0.999124 0.000000
-2.587236 -1.071668 6.475297 0.382684 -0.923879 0.000000
-2.587236 -1.071668 5.355135 0.382684 -0.923879 0.000000
-2.328512 -0.964501 5.355135 0.382684 -0.923879 0.000000
-2.328512 -0.964501 6.475297 0.382684 -0.923879 0.000000
-2.498801 0.328973 5.355135 -0.997859 0.065403 0.000000
-2.520364 0.000000 5.355135 -0.997859 0.065403 0.000000
-2.520364 0.000000 6.475297 -0.997859 0.065403 0.000000
-2.498801 0.328973 6.475297 -0.997859 0.065403 0.000000
-2.182699 -1.260182 5.355135 -0.000000 0.000000 -1.000000
-1.697655 -0.980141 5.355135 -0.000000 0.000000 -1.000000
-1.555197 -1.193345 5.355135 -0.000000 0.000000 -1.000000
-1.999539 -1.534300 5.355135 -0.000000 0.000000 -1.000000
-1.386129 -1.386129 5.355135 -0.000000 0.000000 -1.000000
-1.782166 -1.782166 5.355135 -0.000000 0.000000 -1.000000
-1.193345 -1.555197 5.355135 -0.000000 0.000000 -1.000000
-1.534300 -1.999539 5.355135 -0.000000 0.000000 -1.000000
-2.221710 -1.704778 5.355135 0.000000 0.000000 -1.000000
-1.980185 -1.980185 5.355135 0.000000 0.000000 -1.000000
-1.704778 -2.221710 5.355135 0.000000 0.000000 -1.000000
-2.380529 -1.955050 5.355135 0.000000 0.000000 -1.000000
-2.178203 -2.178203 5.355135 0.000000 0.000000 -1.000000
-1.955050 -2.380529 5.355135 0.000000 0.000000 -1.000000
-1.697655 -0.980141 6.475297 0.000000 -0.000000 1.000000
-2.182699 -1.260182 6.475297 0.000000 -0.000000 1.000000
-1.999539 -1.534300 6.475297 0.000000 -0.000000 1.000000
-1.555197 -1.193345 6.475297 0.000000 -0.000000 1.000000
-1.782166 -1.782166 6.475297 0.000000 -0.000000 1.000000
-1.386129 -1.386129 6.475297 0.000000 -0.000000 1.000000
-1.534300 -1.999539 6.475297 0.000000 -0.000000 1.000000
-1.193345 -1.555197 6.475297 0.000000 -0.000000 1.000000
-2.221710 -1.704778 6.475297 0.000000 0.000000 1.000000
-1.980185 -1.980185 6.475297 0.000000 0.000000 1.000000
-1.704778 -2.221710 6.475297 0.000000 0.000000 1.000000
-2.380529 -1.955050 6.475297 0.000000 0.000000 1.000000
-2.178203 -2.178203 6.475297 0.000000 0.000000 1.000000
-1.955050 -2.380529 6.475297 0.000000 0.000000 1.000000
-2.182699 -1.260182 6.475297 -0.831470 -0.555570 0.000000
-2.182699 -1.260182 5.355135 -0.831470 -0.555570 0.000000
-1.999539 -1.534300 5.355135 -0.831470 -0.555570 0.000000
-1.999539 -1.534300 6.475297 -0.831470 -0.555570 0.000000
-1.999539 -1.534300 6.475297 -0.608761 0.793353 0.000000
-1.999539 -1.534300 5.355135 -0.608761 0.793353 0.000000
-2.221710 -1.704778 5.355135 -0.608761 0.793353 0.000000
-2.221710 -1.704778 6.475297 -0.608761 0.793353 0.000000
-2.221710 -1.704778 6.475297 -0.844340 0.535808 0.000000
-2.221710 -1.704778 5.355135 -0.844340 0.535808 0.000000
-2.380529 -1.955050 5.355135 -0.844340 0.535808 0.000000
-2.380529 -1.955050 6.475297 -0.844340 0.535808 0.000000
-2.380529 -1.955050 6.475297 -0.740833 -0.671689 0.000000
-2.380529 -1.955050 5.355135 -0.740833 -0.671689 0.000000
-2.178203 -2.178203 5.355135 -0.740833 -0.671689 0.000000
-2.178203 -2.178203 6.475297 -0.740833 -0.671689 0.000000
-2.178203 -2.178203 6.475297 -0.671689 -0.740833 0.000000
-2.178203 -2.178203 5.355135 -0.671689 -0.740833 0.000000
-1.955050 -2.380529 5.355135 -0.671689 -0.740833 0.000000
-1.955050 -2.380529 6.475297 -0.671689 -0.740833 0.000000
-1.955050 -2.380529 6.475297 0.535808 -0.844340 0.000000
-1.955050 -2.380529 5.355135 0.535808 -0.844340 0.000000
-1.704778 -2.221710 5.355135 0.535808 -0.844340 0.000000
-1.704778 -2.221710 6.475297 0.535808 -0.844340 0.000000
-1.704778 -2.221710 6.475297 0.793353 -0.608761 0.000000
-1.704778 -2.221710 5.355135 0.793353 -0.608761 0.000000
-1.534300 -1.999539 5.355135 0.793353 -0.608761 0.000000
-1.534300 -1.999539 6.475297 0.793353 -0.608761 0.000000
-2.328512 -0.964501 5.355135 -0.896873 -0.442289 0.000000
-2.182699 -1.260182 5.355135 -0.896873 -0.442289 0.000000
-2.182699 -1.260182 6.475297 -0.896873 -0.442289 0.000000
-2.328512 -0.964501 6.475297 -0.896873 -0.442289 0.000000
-1.260182 -2.182699 5.355135 -0.000000 0.000000 -1.000000
-0.980141 -1.697655 5.355135 -0.000000 0.000000 -1.000000
-0.750168 -1.811065 5.355135 -0.000000 0.000000 -1.000000
-0.964501 -2.328512 5.355135 -0.000000 0.000000 -1.000000
-0.507358 -1.893488 5.355135 -0.000000 0.000000 -1.000000
-0.652318 -2.434484 5.355135 -0.000000 0.000000 -1.000000
-0.255868 -1.943512 5.355135 -0.000000 0.000000 -1.000000
-0.328973 -2.498801 5.355135 -0.000000 0.000000 -1.000000
-1.071668 -2.587236 5.355135 -0.000000 0.000000 -1.000000
-0.724798 -2.704983 5.355135 -0.000000 0.000000 -1.000000
-0.365526 -2.776446 5.355135 -0.000000 0.000000 -1.000000
-1.084074 -2.883387 5.355135 -0.000000 0.000000 -1.000000
-0.797278 -2.975481 5.355135 -0.000000 0.000000 -1.000000
-0.502858 -3.039124 5.355135 -0.000000 0.000000 -1.000000
-0.980141 -1.697655 6.475297 0.000000 0.000000 1.000000
-1.260182 -2.182699 6.475297 0.000000 0.000000 1.000000
-0.964501 -2.328512 6.475297 0.000000 0.000000 1.000000
-0.750168 -1.811065 6.475297 0.000000 0.000000 1.000000
-0.652318 -2.434484 6.475297 0.000000 0.000000 1.000000
-0.507358 -1.893488 6.475297 0.000000 0.000000 1.000000
-0.328973 -2.498801 6.475297 0.000000 0.000000 1.000000
-0.255868 -1.943512 6.475297 0.000000 0.000000 1.000000
-1.071668 -2.587236 6.475297 0.000000 0.000000 1.000000
-0.724798 -2.704983 6.475297 0.000000 0.000000 1.000000
-0.365526 -2.776446 6.475297 0.000000 0.000000 1.000000
-1.084074 -2.883387 6.475297 0.000000 0.000000 1.000000
-0.797278 -2.975481 6.475297 0.000000 0.000000 1.000000
-0.502858 -3.039124 6.475297 0.000000 0.000000 1.000000
-1.260182 -2.182699 6.475297 -0.442289 -0.896873 0.000000
-1.260182 -2.182699 5.355135 -0.442289 -0.896873 0.000000
-0.964501 -2.328512 5.355135 -0.442289 -0.896873 0.000000
-0.964501 -2.328512 6.475297 -0.442289 -0.896873 0.000000
-0.964501 -2.328512 6.475297 -0.923879 0.382684 0.000000
-0.964501 -2.328512 5.355135 -0.923879 0.382684 0.000000
-1.071668 -2.587236 5.355135 -0.923879 0.382684 0.000000
-1.071668 -2.587236 6.475297 -0.923879 0.382684 0.000000
-1.071668 -2.587236 6.475297 -0.999124 0.041854 0.000000
-1.071668 -2.587236 5.355135 -0.999124 0.041854 0.000000
-1.084074 -2.883387 5.355135 -0.999124 0.041854 0.000000
-1.084074 -2.883387 6.475297 -0.999124 0.041854 0.000000
-1.084074 -2.883387 6.475297 -0.305735 -0.952117 0.000000
-1.084074 -2.883387 5.355135 -0.305735 -0.952117 0.000000
-0.797278 -2.975481 5.355135 -0.305735 -0.952117 0.000000
-0.797278 -2.975481 6.475297 -0.305735 -0.952117 0.000000
-0.797278 -2.975481 6.475297 -0.211283 -0.977425 0.000000
-0.797278 -2.975481 5.355135 -0.211283 -0.977425 0.000000
-0.502858 -3.039124 5.355135 -0.211283 -0.977425 0.000000
-0.502858 -3.039124 6.475297 -0.211283 -0.977425 0.000000
-0.502858 -3.039124 6.475297 0.886193 -0.463316 0.000000
-0.502858 -3.039124 5.355135 0.886193 -0.463316 0.000000
-0.365526 -2.776446 5.355135 0.886193 -0.463316 0.000000
-0.365526 -2.776446 6.475297 0.886193 -0.463316 0.000000
-0.365526 -2.776446 6.475297 0.991445 -0.130526 0.000000
-0.365526 -2.776446 5.355135 0.991445 -0.130526 0.000000
-0.328973 -2.498801 5.355135 0.991445 -0.130526 0.000000
-0.328973 -2.498801 6.475297 0.991445 -0.130526 0.000000
-1.534300 -1.999539 5.355135 -0.555570 -0.831470 0.000000
-1.260182 -2.182699 5.355135 -0.555570 -0.831470 0.000000
-1.260182 -2.182699 6.475297 -0.555570 -0.831470 0.000000
-1.534300 -1.999539 6.475297 -0.555570 -0.831470 0.000000
-0.000000 -2.520364 5.355135 -0.000000 0.000000 -1.000000
-0.000000 -1.960283 5.355135 -0.000000 0.000000 -1.000000
0.255868 -1.943512 5.355135 -0.000000 0.000000 -1.000000
0.328973 -2.498801 5.355135 -0.000000 0.000000 -1.000000
0.507358 -1.893488 5.355135 -0.000000 0.000000 -1.000000
0.652318 -2.434484 5.355135 -0.000000 0.000000 -1.000000
0.750168 -1.811065 5.355135 -0.000000 0.000000 -1.000000
0.964501 -2.328512 5.355135 -0.000000 0.000000 -1.000000
0.365526 -2.776446 5.355135 -0.000000 0.000000 -1.000000
0.724798 -2.704983 5.355135 -0.000000 0.000000 -1.000000
1.071668 -2.587236 5.355135 -0.000000 0.000000 -1.000000
0.502858 -3.039124 5.355135 -0.000000 0.000000 -1.000000
0.797278 -2.975481 5.355135 -0.000000 0.000000 -1.000000
1.084074 -2.883387 5.355135 -0.000000 0.000000 -1.000000
-0.000000 -1.960283 6.475297 0.000000 0.000000 1.000000
-0.000000 -2.520364 6.475297 0.000000 0.000000 1.000000
0.328973 -2.498801 6.475297 0.000000 0.000000 1.000000
0.255868 -1.943512 6.475297 0.000000 0.000000 1.000000
0.652318 -2.434484 6.475297 0.000000 0.000000 1.000000
0.507358 -1.893488 6.475297 0.000000 0.000000 1.000000
0.964501 -2.328512 6.475297 0.000000 0.000000 1.000000
0.750168 -1.811065 6.475297 0.000000 0.000000 1.000000
0.365526 -2.776446 6.475297 0.000000 0.000000 1.000000
0.724798 -2.704983 6.475297 0.000000 0.000000 1.000000
1.071668 -2.587236 6.475297 0.000000 0.000000 1.000000
0.502858 -3.039124 6.475297 0.000000 0.000000 1.000000
0.797278 -2.975481 6.475297 0.000000 0.000000 1.000000
1.084074 -2.883387 6.475297 0.000000 0.000000 1.000000
-0.000000 -2.520364 6.475297 0.065403 -0.997859 0.000000
-0.000000 -2.520364 5.355135 0.065403 -0.997859 0.000000
0.328973 -2.498801 5.355135 0.065403 -0.997859 0.000000
0.328973 -2.498801 6.475297 0.065403 -0.997859 0.000000
0.328973 -2.498801 6.475297 -0.991445 -0.130526 0.000000
0.328973 -2.498801 5.355135 -0.991445 -0.130526 0.000000
0.365526 -2.776446 5.355135 -0.991445 -0.130526 0.000000
0.365526 -2.776446 6.475297 -0.991445 -0.130526 0.000000
0.365526 -2.776446 6.475297 -0.886193 -0.463316 0.000000
0.365526 -2.776446 5.355135 -0.886193 -0.463316 0.000000
0.502858 -3.039124 5.355135 -0.886193 -0.463316 0.000000
0.502858 -3.039124 6.475297 -0.886193 -0.463316 0.000000
0.502858 -3.039124 6.475297 0.211283 -0.977425 0.000000
0.502858 -3.039124 5.355135 0.211283 -0.977425 0.000000
0.797278 -2.975481 5.355135 0.211283 -0.977425 0.000000
0.797278 -2.975481 6.475297 0.211283 -0.977425 0.000000
0.797278 -2.975481 6.475297 0.305735 -0.952117 0.000000
0.797278 -2.975481 5.355135 0.305735 -0.952117 0.000000
1.084074 -2.883387 5.355135 0.305735 -0.952117 0.000000
1.084074 -2.883387 6.475297 0.305735 -0.952117 0.000000
1.084074 -2.883387 6.475297 0.999124 0.041854 0.000000
1.084074 -2.883387 5.355135 0.999124 0.041854 0.000000
1.071668 -2.587236 5.355135 0.999124 0.041854 0.000000
1.071668 -2.587236 6.475297 0.999124 0.041854 0.000000
1.071668 -2.587236 6.475297 0.923879 0.382684 0.000000
1.071668 -2.587236 5.355135 0.923879 0.382684 0.000000
0.964501 -2.328512 5.355135 0.923879 0.382684 0.000000
0.964501 -2.328512 6.475297 0.923879 0.382684 0.000000
-0.328973 -2.498801 5.355135 -0.065403 -0.997859 0.000000
-0.000000 -2.520364 5.355135 -0.065403 -0.997859 0.000000
-0.000000 -2.520364 6.475297 -0.065403 -0.997859 0.000000
-0.328973 -2.498801 6.475297 -0.065403 -0.997859 0.000000
1.260182 -2.182699 5.355135 -0.000000 -0.000000 -1.000000
0.980141 -1.697655 5.355135 -0.000000 -0.000000 -1.000000
1.193345 -1.555197 5.355135 -0.000000 -0.000000 -1.000000
1.534300 -1.999539 5.355135 -0.000000 -0.000000 -1.000000
1.386129 -1.386129 5.355135 -0.000000 -0.000000 -1.000000
1.782166 -1.782166 5.355135 -0.000000 -0.000000 -1.000000
1.555197 -1.193345 5.355135 -0.000000 -0.000000 -1.000000
1.999539 -1.534300 5.355135 -0.000000 -0.000000 -1.000000
1.704778 -2.221710 5.355135 0.000000 0.000000 -1.000000
1.980185 -1.980185 5.355135 0.000000 0.000000 -1.000000
2.221710 -1.704778 5.355135 0.000000 0.000000 -1.000000
1.955050 -2.380529 5.355135 0.000000 0.000000 -1.000000
2.178203 -2.178203 5.355135 0.000000 0.000000 -1.000000
2.380529 -1.955050 5.355135 0.000000 0.000000 -1.000000
0.980141 -1.697655 6.475297 0.000000 0.000000 1.000000
1.260182 -2.182699 6.475297 0.000000 0.000000 1.000000
1.534300 -1.999539 6.475297 0.000000 0.000000 1.000000
1.193345 -1.555197 6.475297 0.000000 0.000000 1.000000
1.782166 -1.782166 6.475297 0.000000 0.000000 1.000000
1.386129 -1.386129 6.475297 0.000000 0.000000 1.000000
1.999539 -1.534300 6.475297 0.000000 0.000000 1.000000
1.555197 -1.193345 6.475297 0.000000 0.000000 1.000000
1.704778 -2.221710 6.475297 0.000000 0.000000 1.000000
1.980185 -1.980185 6.475297 0.000000 0.000000 1.000000
2.221710 -1.704778 6.475297 0.000000 0.000000 1.000000
1.955050 -2.380529 6.475297 0.000000 0.000000 1.000000
2.178203 -2.178203 6.475297 0.000000 0.000000 1.000000
2.380529 -1.955050 6.475297 0.000000 0.000000 1.000000
1.260182 -2.182699 6.475297 0.555570 -0.831470 0.000000
1.260182 -2.182699 5.355135 0.555570 -0.831470 0.000000
1.534300 -1.999539 5.355135 0.555570 -0.831470 0.000000
1.534300 -1.999539 6.475297 0.555570 -0.831470 0.000000
1.534300 -1.999539 6.475297 -0.793353 -0.608761 0.000000
1.534300 -1.999539 5.355135 -0.793353 -0.608761 0.000000
1.704778 -2.221710 5.355135 -0.793353 -0.608761 0.000000
1.704778 -2.221710 6.475297 -0.793353 -0.608761 0.000000
1.704778 -2.221710 6.475297 -0.535808 -0.844340 0.000000
1.704778 -2.221710 5.355135 -0.535808 -0.844340 0.000000
1.955050 -2.380529 5.355135 -0.535808 -0.844340 0.000000
1.955050 -2.380529 6.475297 -0.535808 -0.844340 0.000000
1.955050 -2.380529 6.475297 0.671689 -0.740833 0.000000
1.955050 -2.380529 5.355135 0.671689 -0.740833 0.000000
2.178203 -2.178203 5.355135 0.671689 -0.740833 0.000000
2.178203 -2.178203 6.475297 0.671689 -0.740833 0.000000
2.178203 -2.178203 6.475297 0.740833 -0.671689 0.000000
2.178203 -2.178203 5.355135 0.740833 -0.671689 0.000000
2.380529 -1.955050 5.355135 0.740833 -0.671689 0.000000
2.380529 -1.955050 6.475297 0.740833 -0.671689 0.000000
2.380529 -1.955050 6.475297 0.844340 0.535808 0.000000
2.380529 -1.955050 5.355135 0.844340 0.535808 0.000000
2.221710 -1.704778 5.355135 0.844340 0.535808 0.000000
2.221710 -1.704778 6.475297 0.844340 0.535808 0.000000
2.221710 -1.704778 6.475297 0.608761 0.793353 0.000000
2.221710 -1.704778 5.355135 0.608761 0.793353 0.000000
1.999539 -1.534300 5.355135 0.608761 0.793353 0.000000
1.999539 -1.534300 6.475297 0.608761 0.793353 0.000000
0.964501 -2.328512 5.355135 0.442289 -0.896873 0.000000
1.260182 -2.182699 5.355135 0.442289 -0.896873 0.000000
1.260182 -2.182699 6.475297 0.442289 -0.896873 0.000000
0.964501 -2.328512 6.475297 0.442289 -0.896873 0.000000
2.182699 -1.260182 5.355135 0.000000 -0.000000 -1.000000
1.697655 -0.980141 5.355135 0.000000 -0.000000 -1.000000
1.811065 -0.750168 5.355135 0.000000 -0.000000 -1.000000
2.328512 -0.964501 5.355135 0.000000 -0.000000 -1.000000
1.893488 -0.507358 5.355135 0.000000 -0.000000 -1.000000
2.434484 -0.652318 5.355135 0.000000 -0.000000 -1.000000
1.943512 -0.255868 5.355135 0.000000 -0.000000 -1.000000
2.498801 -0.328973 5.355135 0.000000 -0.000000 -1.000000
2.587236 -1.071668 5.355135 0.000000 -0.000000 -1.000000
2.704983 -0.724798 5.355135 0.000000 -0.000000 -1.000000
2.776446 -0.365526 5.355135 0.000000 -0.000000 -1.000000
2.883387 -1.084074 5.355135 0.000000 -0.000000 -1.000000
2.975481 -0.797278 5.355135 0.000000 -0.000000 -1.000000
3.039124 -0.502858 5.355135 0.000000 -0.000000 -1.000000
1.697655 -0.980141 6.475297 0.000000 0.000000 1.000000
2.182699 -1.260182 6.475297 0.000000 0.000000 1.000000
2.328512 -0.964501 6.475297 0.000000 0.000000 1.000000
1.811065 -0.750168 6.475297 0.000000 0.000000 1.000000
2.434484 -0.652318 6.475297 0.000000 0.000000 1.000000
1.893488 -0.507358 6.475297 0.000000 0.000000 1.000000
2.498801 -0.328973 6.475297 0.000000 0.000000 1.000000
1.943512 -0.255868 6.475297 0.000000 0.000000 1.000000
2.587236 -1.071668 6.475297 0.000000 0.000000 1.000000
2.704983 -0.724798 6.475297 0.000000 0.000000 1.000000
2.776446 -0.365526 6.475297 0.000000 0.000000 1.000000
2.883387 -1.084074 6.475297 0.000000 0.000000 1.000000
2.975481 -0.797278 6.475297 0.000000 0.000000 1.000000
3.039124 -0.502858 6.475297 0.000000 0.000000 1.000000
2.182699 -1.260182 6.475297 0.896873 -0.442289 0.000000
2.182699 -1.260182 5.355135 0.896873 -0.442289 0.000000
2.328512 -0.964501 5.355135 0.896873 -0.442289 0.000000
2.328512 -0.964501 6.475297 0.896873 -0.442289 0.000000
2.328512 -0.964501 6.475297 -0.382684 -0.923879 0.000000
2.328512 -0.964501 5.355135 -0.382684 -0.923879 0.000000
2.587236 -1.071668 5.355135 -0.382684 -0.923879 0.000000
2.587236 -1.071668 6.475297 -0.382684 -0.923879 0.000000
2.587236 -1.071668 6.475297 -0.041854 -0.999124 0.000000
2.587236 -1.071668 5.355135 -0.041854 -0.999124 0.000000
2.883387 -1.084074 5.355135 -0.041854 -0.999124 0.000000
2.883387 -1.084074 6.475297 -0.041854 -0.999124 0.000000
2.883387 -1.084074 6.475297 0.952117 -0.305735 0.000000
2.883387 -1.084074 5.355135 0.952117 -0.305735 0.000000
2.975481 -0.797278 5.355135 0.952117 -0.305735 0.000000
2.975481 -0.797278 6.475297 0.952117 -0.305735 0.000000
2.975481 -0.797278 6.475297 0.977425 -0.211283 0.000000
2.975481 -0.797278 5.355135 0.977425 -0.211283 0.000000
3.039124 -0.502858 5.355135 0.977425 -0.211283 0.000000
3.039124 -0.502858 6.475297 0.977425 -0.211283 0.000000
3.039124 -0.502858 6.475297 0.463316 0.886193 0.000000
3.039124 -0.502858 5.355135 0.463316 0.886193 0.000000
2.776446 -0.365526 5.355135 0.463316 0.886193 0.000000
2.776446 -0.365526 6.475297 0.463316 0.886193 0.000000
2.776446 -0.365526 6.475297 0.130526 0.991445 0.000000
2.776446 -0.365526 5.355135 0.130526 0.991445 0.000000
2.498801 -0.328973 5.355135 0.130526 0.991445 0.000000
2.498801 -0.328973 6.475297 0.130526 0.991445 0.000000
1.999539 -1.534300 5.355135 0.831470 -0.555570 0.000000
2.182699 -1.260182 5.355135 0.831470 -0.555570 0.000000
2.182699 -1.260182 6.475297 0.831470 -0.555570 0.000000
1.999539 -1.534300 6.475297 0.831470 -0.555570 0.000000
2.498801 -0.328973 5.355135 0.997859 -0.065403 0.000000
2.520364 0.000000 5.355135 0.997859 -0.065403 0.000000
2.520364 0.000000 6.475297 0.997859 -0.065403 0.000000
2.498801 -0.328973 6.475297 0.997859 -0.065403 0.000000
4 0 1 2 3
4 3 2 4 5
4 5 4 6 7
4 8 3 5 9
4 9 5 7 10
4 11 8 9 12
4 12 9 10 13
4 14 15 16 17
4 17 16 18 19
4 19 18 20 21
4 16 22 23 18
4 18 23 24 20
4 22 25 26 23
4 23 26 27 24
4 28 29 30 31
4 32 33 34 35
4 36 37 38 39
4 40 41 42 43
4 44 45 46 47
4 48 49 50 51
4 52 53 54 55
4 56 57 58 59
4 59 58 60 61
4 61 60 62 63
4 64 59 61 65
4 65 61 63 66
4 67 64 65 68
4 68 65 66 69
4 70 71 72 73
4 73 72 74 75
4 75 74 76 77
4 72 78 79 74
4 74 79 80 76
4 78 81 82 79
4 79 82 83 80
4 84 85 86 87
4 88 89 90 91
4 92 93 94 95
4 96 97 98 99
4 100 101 102 103
4 104 105 106 107
4 108 109 110 111
4 6 57 56 7
4 112 113 114 115
4 20 71 70 21
4 116 117 118 119
4 119 118 120 121
4 121 120 122 123
4 124 119 121 125
4 125 121 123 126
4 127 124 125 128
4 128 125 126 129
4 130 131 132 133
4 133 132 134 135
4 135 134 136 137
4 132 138 139 134
4 134 139 140 136
4 138 141 142 139
4 139 142 143 140
4 144 145 146 147
4 148 149 150 151
4 152 153 154 155
4 156 157 158 159
4 160 161 162 163
4 164 165 166 167
4 168 169 170 171
4 62 117 116 63
4 172 173 174 175
4 76 131 130 77
4 176 177 178 179
4 179 178 180 181
4 181 180 182 183
4 184 179 181 185
4 185 181 183 186
4 187 184 185 188
4 188 185 186 189
4 190 191 192 193
4 193 192 194 195
4 195 194 196 197
4 192 198 199 194
4 194 199 200 196
4 198 201 202 199
4 199 202 203 200
4 204 205 206 207
4 208 209 210 211
4 212 213 214 215
4 216 217 218 219
4 220 221 222 223
4 224 225 226 227
4 228 229 230 231
4 122 177 176 123
4 232 233 234 235
4 136 191 190 137
4 236 237 238 239
4 239 238 240 241
4 241 240 242 243
4 244 239 241 245
4 245 241 243 246
4 247 244 245 248
4 248 245 246 249
4 250 251 252 253
4 253 252 254 255
4 255 254 256 257
4 252 258 259 254
4 254 259 260 256
4 258 261 262 259
4 259 262 263 260
4 264 265 266 267
4 268 269 270 271
4 272 273 274 275
4 276 277 278 279
4 280 281 282 283
4 284 285 286 287
4 288 289 290 291
4 182 237 236 183
4 292 293 294 295
4 196 251 250 197
4 296 297 298 299
4 299 298 300 301
4 301 300 302 303
4 304 299 301 305
4 305 301 303 306
4 307 304 305 308
4 308 305 306 309
4 310 311 312 313
4 313 312 314 315
4 315 314 316 317
4 312 318 319 314
4 314 319 320 316
4 318 321 322 319
4 319 322 323 320
4 324 325 326 327
4 328 329 330 331
4 332 333 334 335
4 336 337 338 339
4 340 341 342 343
4 344 345 346 347
4 348 349 350 351
4 242 297 296 243
4 352 353 354 355
4 256 311 310 257
4 356 357 358 359
4 359 358 360 361
4 361 360 362 363
4 364 359 361 365
4 365 361 363 366
4 367 364 365 368
4 368 365 366 369
4 370 371 372 373
4 373 372 374 375
4 375 374 376 377
4 372 378 379 374
4 374 379 380 376
4 378 381 382 379
4 379 382 383 380
4 384 385 386 387
4 388 389 390 391
4 392 393 394 395
4 396 397 398 399
4 400 401 402 403
4 404 405 406 407
4 408 409 410 411
4 302 357 356 303
4 412 413 414 415
4 316 371 370 317
4 416 417 418 419
4 419 418 420 421
4 421 420 422 423
4 424 419 421 425
4 425 421 423 426
4 427 424 425 428
4 428 425 426 429
4 430 431 432 433
4 433 432 434 435
4 435 434 436 437
4 432 438 439 434
4 434 439 440 436
4 438 441 442 439
4 439 442 443 440
4 444 445 446 447
4 448 449 450 451
4 452 453 454 455
4 456 457 458 459
4 460 461 462 463
4 464 465 466 467
4 468 469 470 471
4 362 417 416 363
4 472 473 474 475
4 376 431 430 377
4 476 477 478 479
4 479 478 480 481
4 481 480 482 483
4 484 479 481 485
4 485 481 483 486
4 487 484 485 488
4 488 485 486 489
4 490 491 492 493
4 493 492 494 495
4 495 494 496 497
4 492 498 499 494
4 494 499 500 496
4 498 501 502 499
4 499 502 503 500
4 504 505 506 507
4 508 509 510 511
4 512 513 514 515
4 516 517 518 519
4 520 521 522 523
4 524 525 526 527
4 528 529 530 531
4 422 477 476 423
4 532 533 534 535
4 436 491 490 437
4 536 537 538 539
4 539 538 540 541
4 541 540 542 543
4 544 539 541 545
4 545 541 543 546
4 547 544 545 548
4 548 545 546 549
4 550 551 552 553
4 553 552 554 555
4 555 554 556 557
4 552 558 559 554
4 554 559 560 556
4 558 561 562 559
4 559 562 563 560
4 564 565 566 567
4 568 569 570 571
4 572 573 574 575
4 576 577 578 579
4 580 581 582 583
4 584 585 586 587
4 588 589 590 591
4 482 537 536 483
4 592 593 594 595
4 496 551 550 497
4 596 597 598 599
4 599 598 600 601
4 601 600 602 603
4 604 599 601 605
4 605 601 603 606
4 607 604 605 608
4 608 605 606 609
4 610 611 612 613
4 613 612 614 615
4 615 614 616 617
4 612 618 619 614
4 614 619 620 616
4 618 621 622 619
4 619 622 623 620
4 624 625 626 627
4 628 629 630 631
4 632 633 634 635
4 636 637 638 639
4 640 641 642 643
4 644 645 646 647
4 648 649 650 651
4 542 597 596 543
4 652 653 654 655
4 556 611 610 557
4 656 657 658 659
4 659 658 660 661
4 661 660 662 663
4 664 659 661 665
4 665 661 663 666
4 667 664 665 668
4 668 665 666 669
4 670 671 672 673
4 673 672 674 675
4 675 674 676 677
4 672 678 679 674
4 674 679 680 676
4 678 681 682 679
4 679 682 683 680
4 684 685 686 687
4 688 689 690 691
4 692 693 694 695
4 696 697 698 699
4 700 701 702 703
4 704 705 706 707
4 708 709 710 711
4 602 657 656 603
4 712 713 714 715
4 616 671 670 617
4 662 1 0 663
4 716 717 718 719
4 676 15 14 677
